<svg xmlns="http://www.w3.org/2000/svg" version="1.1" xmlns:xlink="http://www.w3.org/1999/xlink" xmlns:svgjs="http://svgjs.dev/svgjs" width="1000" height="894" viewBox="0 0 1000 894"><g transform="matrix(1,0,0,1,0.08348853638170795,0.3619433198380193)"><svg viewBox="0 0 276 247" data-background-color="#ffffff" preserveAspectRatio="xMidYMid meet" height="894" width="1000" xmlns="http://www.w3.org/2000/svg" xmlns:xlink="http://www.w3.org/1999/xlink"><g id="tight-bounds" transform="matrix(1,0,0,1,-0.023042836041355486,-0.09999999999999432)"><svg viewBox="0 0 276.0460856720827 247.2" height="247.2" width="276.0460856720827"><g><svg viewBox="0 0 276.0460856720827 247.2" height="247.2" width="276.0460856720827"><g><svg viewBox="0 0 276.0460856720827 247.2" height="247.2" width="276.0460856720827"><g><svg viewBox="0 0 276.0460856720827 247.2" height="247.2" width="276.0460856720827"><g><svg viewBox="0 0 276.0460856720827 247.2" height="247.2" width="276.0460856720827"><g><svg viewBox="0 0 276.0460856720827 247.2" height="247.2" width="276.0460856720827"><g><svg viewBox="0 0 276.0460856720827 247.2" height="247.2" width="276.0460856720827"><g transform="matrix(1,0,0,1,0,0)"><svg width="276.0460856720827" viewBox="2.6 -33.85 37.8 33.85" height="247.2" data-palette-color="#8430b7"><path d="M28.8-10.05L24.55 0 18.3 0 14.15-9.6Q14-10 13.58-11.08 13.15-12.15 12.63-13.53 12.1-14.9 11.55-16.35 11-17.8 10.55-19L10.55-19Q10.55-17.7 10.55-16 10.55-14.3 10.55-12.55 10.55-10.8 10.53-9.25 10.5-7.7 10.45-6.8L10.45-6.8 10.2 0 2.6 0 4.6-33.85 11.7-33.85 19.5-14.35Q19.85-13.45 20.43-11.83 21-10.2 21.55-8.3L21.55-8.3Q22.1-10.15 22.68-11.78 23.25-13.4 23.65-14.35L23.65-14.35 31.45-33.85 38.4-33.85 40.4 0 32.65 0 32.35-6.8Q32.3-7.75 32.27-9.3 32.25-10.85 32.25-12.58 32.25-14.3 32.27-16.03 32.3-17.75 32.3-19L32.3-19Q31.9-17.95 31.43-16.63 30.95-15.3 30.45-14.05 29.95-12.8 29.5-11.73 29.05-10.65 28.8-10.05L28.8-10.05Z" opacity="1" transform="matrix(1,0,0,1,0,0)" fill="#8430b7" class="undefined-text-0" data-fill-palette-color="primary" id="text-0"></path></svg></g></svg></g></svg></g></svg></g></svg></g></svg></g></svg></g><defs></defs></svg><rect width="276.0460856720827" height="247.2" fill="none" stroke="none" visibility="hidden"></rect></g></svg></g></svg>